<?xml version="1.0" standalone="no"?><svg xmlns="http://www.w3.org/2000/svg" viewBox="0 0 1440 320"><path fill="#ff5500" fill-opacity="1" d="M0,288L20,288C40,288,80,288,120,272C160,256,200,224,240,186.7C280,149,320,107,360,101.3C400,96,440,128,480,138.7C520,149,560,139,600,122.7C640,107,680,85,720,74.7C760,64,800,64,840,80C880,96,920,128,960,170.7C1000,213,1040,267,1080,288C1120,309,1160,299,1200,256C1240,213,1280,139,1320,101.3C1360,64,1400,64,1420,64L1440,64L1440,320L1420,320C1400,320,1360,320,1320,320C1280,320,1240,320,1200,320C1160,320,1120,320,1080,320C1040,320,1000,320,960,320C920,320,880,320,840,320C800,320,760,320,720,320C680,320,640,320,600,320C560,320,520,320,480,320C440,320,400,320,360,320C320,320,280,320,240,320C200,320,160,320,120,320C80,320,40,320,20,320L0,320Z"></path></svg>